<svg width="37" height="33" viewBox="0 0 37 33" fill="none" xmlns="http://www.w3.org/2000/svg">
<path d="M31.0201 24.6082C30.3385 23.1682 29.3494 21.8603 28.1078 20.7571C26.87 19.6508 25.4037 18.7688 23.7899 18.1597C23.7755 18.1532 23.761 18.15 23.7466 18.1436C25.9976 16.6934 27.461 14.3312 27.461 11.666C27.461 7.25098 23.4503 3.67383 18.5001 3.67383C13.5499 3.67383 9.53915 7.25098 9.53915 11.666C9.53915 14.3312 11.0025 16.6934 13.2536 18.1468C13.2392 18.1532 13.2247 18.1564 13.2102 18.1629C11.5915 18.772 10.139 19.6453 8.89238 20.7604C7.65197 21.8643 6.663 23.1721 5.98007 24.6114C5.30916 26.0205 4.94733 27.5313 4.91415 29.0619C4.91319 29.0963 4.91995 29.1305 4.93405 29.1626C4.94814 29.1946 4.96928 29.2238 4.99622 29.2484C5.02316 29.273 5.05535 29.2926 5.0909 29.306C5.12645 29.3193 5.16464 29.3262 5.20322 29.3262H7.37118C7.53017 29.3262 7.65663 29.2134 7.66025 29.0748C7.73251 26.5869 8.85263 24.2569 10.8327 22.4909C12.8814 20.6637 15.6022 19.6582 18.5001 19.6582C21.3979 19.6582 24.1187 20.6637 26.1675 22.4909C28.1475 24.2569 29.2677 26.5869 29.3399 29.0748C29.3435 29.2166 29.47 29.3262 29.629 29.3262H31.797C31.8355 29.3262 31.8737 29.3193 31.9093 29.306C31.9448 29.2926 31.977 29.273 32.004 29.2484C32.0309 29.2238 32.052 29.1946 32.0661 29.1626C32.0802 29.1305 32.087 29.0963 32.086 29.0619C32.0499 27.5215 31.6922 26.0229 31.0201 24.6082ZM18.5001 17.209C16.8416 17.209 15.2807 16.6321 14.1063 15.5848C12.932 14.5374 12.2852 13.1452 12.2852 11.666C12.2852 10.1868 12.932 8.79463 14.1063 7.74727C15.2807 6.6999 16.8416 6.12305 18.5001 6.12305C20.1586 6.12305 21.7195 6.6999 22.8938 7.74727C24.0682 8.79463 24.7149 10.1868 24.7149 11.666C24.7149 13.1452 24.0682 14.5374 22.8938 15.5848C21.7195 16.6321 20.1586 17.209 18.5001 17.209Z" fill="black"/>
</svg>
