<svg width="179" height="151" viewBox="0 0 179 151" fill="none" xmlns="http://www.w3.org/2000/svg">
<mask id="mask0" mask-type="alpha" maskUnits="userSpaceOnUse" x="0" y="0" width="179" height="151">
<path d="M29.4545 117.816V101.235L50.6443 112.916C55.2067 115.431 60.5386 116.77 65.9886 116.77C71.4385 116.77 76.7705 115.431 81.3329 112.916L102.523 101.235V117.816C102.523 118.531 102.248 119.226 101.74 119.797L101.735 119.802L101.729 119.811L101.714 119.828L101.667 119.872L101.604 119.943L101.536 120.017L101.087 120.462C100.561 120.966 100.009 121.451 99.4329 121.915C97.9872 123.091 95.8317 124.618 92.909 126.133C87.0583 129.171 78.1962 132.125 65.9886 132.125C53.781 132.125 44.9241 129.175 39.063 126.133C36.7177 124.927 34.5308 123.515 32.539 121.919C31.7489 121.276 31.0047 120.594 30.3105 119.877L30.2635 119.833L30.2478 119.811V119.802C29.7366 119.229 29.4583 118.533 29.4545 117.816Z" fill="black"/>
<path d="M119.015 84.2583L77.0532 107.386C73.7635 109.2 69.9186 110.166 65.9886 110.166C62.0586 110.166 58.2137 109.2 54.924 107.386L19.0162 87.5956V111.212C19.0162 112.088 18.6038 112.928 17.8697 113.547C17.1357 114.166 16.14 114.514 15.1019 114.514C14.0637 114.514 13.0681 114.166 12.334 113.547C11.5999 112.928 11.1875 112.088 11.1875 111.212V83.6948C11.1875 83.3073 11.2658 82.9375 11.4119 82.5941C11.118 81.8923 11.1137 81.1274 11.3998 80.4233C11.6859 79.7192 12.2456 79.1174 12.9881 78.7153L55.0753 55.9531C58.3324 54.192 62.1199 53.256 65.9886 53.256C69.8573 53.256 73.6447 54.192 76.9018 55.9531L118.989 78.7153C119.539 79.013 119.991 79.422 120.306 79.905C120.62 80.3881 120.786 80.9298 120.789 81.4808C120.791 82.0318 120.63 82.5747 120.321 83.0598C120.011 83.5449 119.562 83.957 119.015 84.2583Z" fill="black"/>
<g clip-path="url(#clip0)">
<path fill-rule="evenodd" clip-rule="evenodd" d="M135.901 24.6771C118.966 25.5659 110.117 33.656 109.344 48.2858H126.427C126.641 43.2181 129.994 39.4296 136.238 38.8711C142.366 38.3223 148.18 39.5536 149.94 43.088C151.843 46.906 147.573 51.3427 145.543 53.205C141.785 56.6584 135.682 59.1775 132.518 62.9034C129.417 66.5544 128.865 71.3582 128.626 77.2373H143.683C143.894 73.4783 144.191 69.8776 146.218 67.5414C149.516 63.7455 154.44 61.9667 158.567 58.9688C162.51 56.1035 166.657 52.6501 167.362 47.305C169.476 31.3075 153.996 23.7244 135.901 24.6771Z" fill="black"/>
<path d="M136.289 98.2558C141.538 98.2558 145.794 94.72 145.794 90.3584C145.794 85.9967 141.538 82.4609 136.289 82.4609C131.039 82.4609 126.783 85.9967 126.783 90.3584C126.783 94.72 131.039 98.2558 136.289 98.2558Z" fill="black"/>
</g>
</mask>
<g mask="url(#mask0)">
<rect x="-31" y="-15" width="237" height="166" fill="white"/>
</g>
<defs>
<clipPath id="clip0">
<rect width="93.1382" height="78.5691" fill="white" transform="translate(74.2195 22.0976)"/>
</clipPath>
</defs>
</svg>
