<svg width="100" height="591" viewBox="0 0 100 591" fill="none" xmlns="http://www.w3.org/2000/svg">
<path opacity="0.26" d="M78 524.12L34.32 524.224L70.304 545.648V553.24L35.256 574.56H78V590.368H5.2L5.2 576.432L50.44 549.184L5.2 522.352L5.2 508.52L78 508.312L78 524.12ZM22.048 418.448L81.432 443.72C87.88 446.285 92.4213 449.475 95.056 453.288C97.6907 457.032 99.008 461.573 99.008 466.912C99.008 469.824 98.5573 472.701 97.656 475.544C96.7547 478.387 95.5067 480.709 93.912 482.512L82.368 476.584C83.4773 475.336 84.344 473.915 84.968 472.32C85.592 470.656 85.904 469.027 85.904 467.432C85.904 465.213 85.3493 463.411 84.24 462.024C83.2 460.637 81.432 459.389 78.936 458.28L78.416 458.072L22.048 482.304L22.048 465.56L60.008 449.856L22.048 434.048V418.448ZM79.248 309.99C79.248 317.409 77.6533 324.134 74.464 330.166C71.2053 336.129 66.7333 340.844 61.048 344.31C55.2933 347.708 48.8107 349.406 41.6 349.406C34.3893 349.406 27.9413 347.708 22.256 344.31C16.5013 340.844 12.0293 336.129 8.84 330.166C5.58133 324.134 3.952 317.374 3.952 309.886C3.952 303.577 5.06133 297.892 7.28 292.83C9.49867 287.7 12.688 283.401 16.848 279.934L26.832 290.75C21.1467 295.673 18.304 301.774 18.304 309.054C18.304 313.561 19.3093 317.582 21.32 321.118C23.2613 324.654 26 327.428 29.536 329.438C33.072 331.38 37.0933 332.35 41.6 332.35C46.1067 332.35 50.128 331.38 53.664 329.438C57.2 327.428 59.9733 324.654 61.984 321.118C63.9253 317.582 64.896 313.561 64.896 309.054C64.896 301.774 62.0187 295.673 56.264 290.75L66.248 279.934C70.4773 283.401 73.7013 287.7 75.92 292.83C78.1387 297.961 79.248 303.681 79.248 309.99ZM0.831995 251.501L0.831995 235.277H78V251.501H0.831995ZM21.216 179.452C21.216 170.785 23.296 164.129 27.456 159.484C31.5467 154.838 37.752 152.516 46.072 152.516H78V167.7H71.032C76.232 170.75 78.832 176.436 78.832 184.756C78.832 189.054 78.104 192.798 76.648 195.988C75.192 199.108 73.1813 201.5 70.616 203.164C68.0507 204.828 65.1387 205.66 61.88 205.66C56.68 205.66 52.5893 203.718 49.608 199.836C46.6267 195.884 45.136 189.817 45.136 181.636L45.136 168.74C41.6 168.74 38.896 169.814 37.024 171.964C35.0827 174.113 34.112 177.337 34.112 181.636C34.112 184.617 34.5973 187.564 35.568 190.476C36.4693 193.318 37.7173 195.745 39.312 197.756L27.976 203.58C25.8267 200.529 24.1627 196.889 22.984 192.66C21.8053 188.361 21.216 183.958 21.216 179.452ZM67.912 180.7C67.912 177.926 67.288 175.465 66.04 173.316C64.7227 171.166 62.816 169.641 60.32 168.74H54.6L54.6 179.868C54.6 186.524 56.784 189.852 61.152 189.852C63.232 189.852 64.896 189.054 66.144 187.46C67.3227 185.796 67.912 183.542 67.912 180.7ZM78.832 100.808C78.832 105.454 78.2773 109.995 77.168 114.432C75.9893 118.87 74.5333 122.406 72.8 125.04L61.152 119.632C62.7467 117.136 64.064 114.12 65.104 110.584C66.0747 107.048 66.56 103.582 66.56 100.184C66.56 93.3203 64.8613 89.8883 61.464 89.8883C59.8693 89.8883 58.7253 90.8243 58.032 92.6963C57.3387 94.5683 56.7493 97.4456 56.264 101.328C55.5707 105.904 54.7733 109.683 53.872 112.664C52.9707 115.646 51.376 118.246 49.088 120.464C46.8 122.614 43.5413 123.688 39.312 123.688C35.776 123.688 32.656 122.683 29.952 120.672C27.1787 118.592 25.0293 115.611 23.504 111.728C21.9787 107.776 21.216 103.131 21.216 97.7923C21.216 93.8403 21.6667 89.923 22.568 86.0403C23.4 82.0883 24.5787 78.8296 26.104 76.2643L37.648 81.6723C34.8747 86.595 33.488 91.9683 33.488 97.7923C33.488 101.259 33.9733 103.859 34.944 105.592C35.9147 107.326 37.1627 108.192 38.688 108.192C40.4213 108.192 41.6347 107.256 42.328 105.384C43.0213 103.512 43.68 100.531 44.304 96.4403C45.0667 91.8643 45.8987 88.1203 46.8 85.2083C47.632 82.2963 49.192 79.7656 51.48 77.6163C53.768 75.467 56.9573 74.3923 61.048 74.3923C64.5147 74.3923 67.6 75.4323 70.304 77.5123C73.008 79.5923 75.1227 82.643 76.648 86.6643C78.104 90.6163 78.832 95.331 78.832 100.808ZM78.832 27.3583C78.832 32.0036 78.2773 36.545 77.168 40.9823C75.9893 45.4196 74.5333 48.9556 72.8 51.5903L61.152 46.1823C62.7467 43.6863 64.064 40.6703 65.104 37.1343C66.0747 33.5983 66.56 30.1316 66.56 26.7343C66.56 19.8703 64.8613 16.4383 61.464 16.4383C59.8693 16.4383 58.7253 17.3743 58.032 19.2463C57.3387 21.1183 56.7493 23.9956 56.264 27.8783C55.5707 32.4543 54.7733 36.233 53.872 39.2143C52.9707 42.1956 51.376 44.7956 49.088 47.0143C46.8 49.1636 43.5413 50.2383 39.312 50.2383C35.776 50.2383 32.656 49.233 29.952 47.2223C27.1787 45.1423 25.0293 42.161 23.504 38.2783C21.9787 34.3263 21.216 29.681 21.216 24.3423C21.216 20.3903 21.6667 16.473 22.568 12.5903C23.4 8.63829 24.5787 5.37962 26.104 2.81429L37.648 8.22229C34.8747 13.145 33.488 18.5183 33.488 24.3423C33.488 27.809 33.9733 30.409 34.944 32.1423C35.9147 33.8756 37.1627 34.7423 38.688 34.7423C40.4213 34.7423 41.6347 33.8063 42.328 31.9343C43.0213 30.0623 43.68 27.081 44.304 22.9903C45.0667 18.4143 45.8987 14.6703 46.8 11.7583C47.632 8.84629 49.192 6.31562 51.48 4.16629C53.768 2.01695 56.9573 0.942285 61.048 0.942285C64.5147 0.942285 67.6 1.98229 70.304 4.06229C73.008 6.14229 75.1227 9.19295 76.648 13.2143C78.104 17.1663 78.832 21.881 78.832 27.3583Z" fill="#C0C0C0"/>
</svg>
