<svg width="151" height="28" viewBox="0 0 151 28" fill="none" xmlns="http://www.w3.org/2000/svg">
<path d="M40.96 20L40.942 12.44L37.234 18.668H35.92L32.23 12.602V20H29.494V7.4H31.906L36.622 15.23L41.266 7.4H43.66L43.696 20H40.96ZM56.0994 10.316L51.7254 20.594C51.2814 21.71 50.7294 22.496 50.0694 22.952C49.4214 23.408 48.6354 23.636 47.7114 23.636C47.2074 23.636 46.7094 23.558 46.2174 23.402C45.7254 23.246 45.3234 23.03 45.0114 22.754L46.0374 20.756C46.2534 20.948 46.4994 21.098 46.7754 21.206C47.0634 21.314 47.3454 21.368 47.6214 21.368C48.0054 21.368 48.3174 21.272 48.5574 21.08C48.7974 20.9 49.0134 20.594 49.2054 20.162L49.2414 20.072L45.0474 10.316H47.9454L50.6634 16.886L53.3994 10.316H56.0994ZM68.5709 20.216C67.2869 20.216 66.1229 19.94 65.0789 19.388C64.0469 18.824 63.2309 18.05 62.6309 17.066C62.0429 16.07 61.7489 14.948 61.7489 13.7C61.7489 12.452 62.0429 11.336 62.6309 10.352C63.2309 9.356 64.0469 8.582 65.0789 8.03C66.1229 7.466 67.2929 7.184 68.5889 7.184C69.6809 7.184 70.6649 7.376 71.5409 7.76C72.4289 8.144 73.1729 8.696 73.7729 9.416L71.9009 11.144C71.0489 10.16 69.9929 9.668 68.7329 9.668C67.9529 9.668 67.2569 9.842 66.6449 10.19C66.0329 10.526 65.5529 11 65.2049 11.612C64.8689 12.224 64.7009 12.92 64.7009 13.7C64.7009 14.48 64.8689 15.176 65.2049 15.788C65.5529 16.4 66.0329 16.88 66.6449 17.228C67.2569 17.564 67.9529 17.732 68.7329 17.732C69.9929 17.732 71.0489 17.234 71.9009 16.238L73.7729 17.966C73.1729 18.698 72.4289 19.256 71.5409 19.64C70.6529 20.024 69.6629 20.216 68.5709 20.216ZM75.544 6.644H78.352V20H75.544V6.644ZM84.8641 10.172C86.3641 10.172 87.5161 10.532 88.3201 11.252C89.1241 11.96 89.5261 13.034 89.5261 14.474V20H86.8981V18.794C86.3701 19.694 85.3861 20.144 83.9461 20.144C83.2021 20.144 82.5541 20.018 82.0021 19.766C81.4621 19.514 81.0481 19.166 80.7601 18.722C80.4721 18.278 80.3281 17.774 80.3281 17.21C80.3281 16.31 80.6641 15.602 81.3361 15.086C82.0201 14.57 83.0701 14.312 84.4861 14.312H86.7181C86.7181 13.7 86.5321 13.232 86.1601 12.908C85.7881 12.572 85.2301 12.404 84.4861 12.404C83.9701 12.404 83.4601 12.488 82.9561 12.656C82.4641 12.812 82.0441 13.028 81.6961 13.304L80.6881 11.342C81.2161 10.97 81.8461 10.682 82.5781 10.478C83.3221 10.274 84.0841 10.172 84.8641 10.172ZM84.6481 18.254C85.1281 18.254 85.5541 18.146 85.9261 17.93C86.2981 17.702 86.5621 17.372 86.7181 16.94V15.95H84.7921C83.6401 15.95 83.0641 16.328 83.0641 17.084C83.0641 17.444 83.2021 17.732 83.4781 17.948C83.7661 18.152 84.1561 18.254 84.6481 18.254ZM95.3255 20.144C94.5215 20.144 93.7355 20.048 92.9675 19.856C92.1995 19.652 91.5875 19.4 91.1315 19.1L92.0675 17.084C92.4995 17.36 93.0215 17.588 93.6335 17.768C94.2455 17.936 94.8455 18.02 95.4335 18.02C96.6215 18.02 97.2155 17.726 97.2155 17.138C97.2155 16.862 97.0535 16.664 96.7295 16.544C96.4055 16.424 95.9075 16.322 95.2355 16.238C94.4435 16.118 93.7895 15.98 93.2735 15.824C92.7575 15.668 92.3075 15.392 91.9235 14.996C91.5515 14.6 91.3655 14.036 91.3655 13.304C91.3655 12.692 91.5395 12.152 91.8875 11.684C92.2475 11.204 92.7635 10.832 93.4355 10.568C94.1195 10.304 94.9235 10.172 95.8475 10.172C96.5315 10.172 97.2095 10.25 97.8815 10.406C98.5655 10.55 99.1295 10.754 99.5735 11.018L98.6375 13.016C97.7855 12.536 96.8555 12.296 95.8475 12.296C95.2475 12.296 94.7975 12.38 94.4975 12.548C94.1975 12.716 94.0475 12.932 94.0475 13.196C94.0475 13.496 94.2095 13.706 94.5335 13.826C94.8575 13.946 95.3735 14.06 96.0815 14.168C96.8735 14.3 97.5215 14.444 98.0255 14.6C98.5295 14.744 98.9675 15.014 99.3395 15.41C99.7115 15.806 99.8975 16.358 99.8975 17.066C99.8975 17.666 99.7175 18.2 99.3575 18.668C98.9975 19.136 98.4695 19.502 97.7735 19.766C97.0895 20.018 96.2735 20.144 95.3255 20.144ZM104.888 20.144C104.084 20.144 103.298 20.048 102.53 19.856C101.762 19.652 101.15 19.4 100.694 19.1L101.63 17.084C102.062 17.36 102.584 17.588 103.196 17.768C103.808 17.936 104.408 18.02 104.996 18.02C106.184 18.02 106.778 17.726 106.778 17.138C106.778 16.862 106.616 16.664 106.292 16.544C105.968 16.424 105.47 16.322 104.798 16.238C104.006 16.118 103.352 15.98 102.836 15.824C102.32 15.668 101.87 15.392 101.486 14.996C101.114 14.6 100.928 14.036 100.928 13.304C100.928 12.692 101.102 12.152 101.45 11.684C101.81 11.204 102.326 10.832 102.998 10.568C103.682 10.304 104.486 10.172 105.41 10.172C106.094 10.172 106.772 10.25 107.444 10.406C108.128 10.55 108.692 10.754 109.136 11.018L108.2 13.016C107.348 12.536 106.418 12.296 105.41 12.296C104.81 12.296 104.36 12.38 104.06 12.548C103.76 12.716 103.61 12.932 103.61 13.196C103.61 13.496 103.772 13.706 104.096 13.826C104.42 13.946 104.936 14.06 105.644 14.168C106.436 14.3 107.084 14.444 107.588 14.6C108.092 14.744 108.53 15.014 108.902 15.41C109.274 15.806 109.46 16.358 109.46 17.066C109.46 17.666 109.28 18.2 108.92 18.668C108.56 19.136 108.032 19.502 107.336 19.766C106.652 20.018 105.836 20.144 104.888 20.144Z" fill="white"/>
<mask id="mask0" mask-type="alpha" maskUnits="userSpaceOnUse" x="0" y="0" width="27" height="20">
<path d="M4.46777 16.1741V12.2225L9.51375 15.0063C10.6002 15.6056 11.8699 15.9247 13.1677 15.9247C14.4656 15.9247 15.7353 15.6056 16.8217 15.0063L21.8677 12.2225V16.1741C21.8677 16.3444 21.8023 16.5101 21.6813 16.6463L21.68 16.6473L21.6788 16.6494L21.6751 16.6536L21.6639 16.6641L21.649 16.6809L21.6328 16.6987L21.5259 16.8047C21.4005 16.9249 21.2691 17.0404 21.1319 17.151C20.7877 17.4311 20.2744 17.7952 19.5784 18.1562C18.1851 18.8802 16.0748 19.5843 13.1677 19.5843C10.2607 19.5843 8.15159 18.8812 6.75586 18.1562C6.19737 17.8688 5.67659 17.5322 5.2023 17.152C5.01414 16.9988 4.83693 16.8362 4.6716 16.6652L4.66042 16.6547L4.65669 16.6494V16.6473C4.53493 16.5109 4.46867 16.3449 4.46777 16.1741Z" fill="black"/>
<path d="M25.7951 8.17656L15.8026 13.6884C15.0192 14.1207 14.1036 14.3509 13.1677 14.3509C12.2319 14.3509 11.3163 14.1207 10.5329 13.6884L1.98208 8.97191V14.6002C1.98208 14.8089 1.88387 15.0091 1.70906 15.1567C1.53425 15.3043 1.29716 15.3872 1.04994 15.3872C0.802718 15.3872 0.565625 15.3043 0.390815 15.1567C0.216005 15.0091 0.117798 14.8089 0.117798 14.6002V8.04225C0.117798 7.94991 0.136441 7.86178 0.17124 7.77993C0.101247 7.61268 0.100233 7.43038 0.168364 7.26258C0.236494 7.09479 0.369773 6.95135 0.546582 6.85552L10.5689 1.43078C11.3446 1.01109 12.2465 0.78801 13.1677 0.78801C14.089 0.78801 14.9909 1.01109 15.7666 1.43078L25.7889 6.85552C25.9198 6.92647 26.0276 7.02395 26.1024 7.13907C26.1773 7.25419 26.2168 7.38329 26.2174 7.51461C26.2181 7.64594 26.1797 7.7753 26.106 7.89092C26.0322 8.00654 25.9254 8.10473 25.7951 8.17656Z" fill="black"/>
</mask>
<g mask="url(#mask0)">
<rect x="1" y="1" width="25" height="19" fill="white"/>
</g>
</svg>
